PathFileType	3	(X/Y/Z)	C:\Users\koon_\Desktop\
DataRate	CameraRate	NumFrames	NumMarkers	Units	OrigDataRate	OrigDataStartFrame	OrigNumFrames
100.0	100.0	12	27	mm	100.0	1766	3531	
Frame#	Time	get:LFHD			get:RFHD			get:LBHD			get:RBHD			get:C7			get:T10			get:CLAV			get:STRN			get:RBAK			get:LSHO			get:LUPA			get:LELB			get:LFRA			get:LWRA			get:LWRB			get:LFIN			get:RSHO			get:RUPA			get:RELB			get:RFRA			get:RWRA			get:RWRB			get:RFIN			get:LASI			get:RASI			get:LPSI			get:RPSI			
		X1	Y1	Z1	X2	Y2	Z2	X3	Y3	Z3	X4	Y4	Z4	X5	Y5	Z5	X6	Y6	Z6	X7	Y7	Z7	X8	Y8	Z8	X9	Y9	Z9	X10	Y10	Z10	X11	Y11	Z11	X12	Y12	Z12	X13	Y13	Z13	X14	Y14	Z14	X15	Y15	Z15	X16	Y16	Z16	X17	Y17	Z17	X18	Y18	Z18	X19	Y19	Z19	X20	Y20	Z20	X21	Y21	Z21	X22	Y22	Z22	X23	Y23	Z23	X24	Y24	Z24	X25	Y25	Z25	X26	Y26	Z26	X27	Y27	Z27	
1766	17.65	56.322216	1535.152	-19.142405	-89.002998	1533.0243	-41.535408	75.970314	1529.3169	-156.14583	-74.709145	1521.0399	-175.18161	0.90911275	1335.4998	-198.0504	13.542781	1121.1692	-233.26242	2.8459415	1232.7532	-7.8286705	2.2258847	1079.1073	32.31514	-87.211143	1259.2715	-226.29578	149.49767	1337.9497	-121.45778	291.96024	1187.5427	-80.46228	368.02356	1100.5612	-138.87903	423.39587	1078.4515	-62.026863	515.21216	939.4903	-23.795254	551.66412	962.39526	-85.305351	599.43811	907.33191	-45.202053	-126.42169	1330.4749	-105.59978	-227.51042	1237.4564	-98.993958	-334.75775	1064.6447	-165.80084	-431.6792	964.3714	-80.864136	-486.07431	883.17297	-72.631592	-504.22351	912.55139	-139.55434	-558.39978	854.17731	-91.191299	135.67523	887.03223	-35.250153	-154.46355	910.31915	-47.966198	51.75882	928.02838	-222.00725	-35.472862	929.90643	-229.5537
1767	17.66	56.214199	1534.9987	-19.028849	-89.032692	1532.6709	-42.083118	75.93689	1529.5865	-156.06303	-74.740997	1521.2274	-175.04184	1.2004559	1335.4844	-198.38362	13.978436	1121.2366	-232.9969	2.711937	1233.0685	-8.1146984	2.1321256	1079.5404	32.294552	-86.807159	1259.2465	-226.65857	148.588	1339.0673	-121.63396	295.99316	1195.3888	-79.956215	375.5741	1110.7803	-137.67476	432.37308	1092.3993	-61.032021	530.49585	958.31775	-21.661825	565.56891	981.93738	-83.394302	616.25214	930.01996	-43.273888	-125.46064	1331.1703	-106.36337	-230.1152	1241.7704	-100.09219	-342.78769	1073.6447	-166.21519	-446.06082	979.30243	-81.123962	-504.20667	900.83716	-72.444359	-519.97198	930.05652	-140.1423	-577.74829	875.44916	-92.010902	135.64226	887.04407	-35.495415	-154.47749	910.33569	-48.095455	52.051979	928.09436	-221.81567	-35.158131	929.95593	-229.48273
1768	17.67	56.147453	1534.8632	-19.013535	-89.098503	1532.4889	-42.087616	75.941025	1529.8939	-155.97462	-74.7463	1521.4984	-175.04376	1.5360752	1335.4506	-198.81462	14.338459	1121.3684	-232.90855	2.621268	1233.4574	-8.402976	2.0352943	1079.9744	32.237831	-86.369446	1259.3856	-227.14014	147.5379	1340.2019	-121.87753	300.01947	1203.4308	-79.426102	382.84756	1121.6097	-136.68307	440.90036	1107.1748	-60.03207	545.7135	978.20752	-19.370926	578.79285	1002.462	-81.734497	632.14355	953.85632	-41.31731	-124.40345	1331.9473	-107.07301	-232.38812	1246.2631	-101.04036	-350.73322	1082.6472	-165.73779	-459.81116	995.19519	-81.199516	-521.72229	919.67517	-72.497513	-535.02277	948.74707	-140.84308	-596.34851	898.05933	-92.955528	135.54877	887.02374	-35.170856	-154.50693	910.35419	-48.224297	52.368271	928.19824	-221.67883	-34.848232	929.96167	-229.33679
1769	17.68	56.084019	1534.6766	-18.953648	-89.185646	1532.3081	-42.124054	75.919861	1530.1868	-155.97365	-74.741982	1521.7563	-175.00735	1.8641503	1335.4437	-199.14465	14.681579	1121.4208	-232.60721	2.5417001	1233.8958	-8.6224279	1.906163	1080.4812	32.173119	-85.992111	1259.4374	-227.37697	146.37309	1341.3732	-122.24988	303.81006	1211.7701	-78.800545	389.75626	1132.9448	-135.61314	448.89206	1122.5463	-59.2248	559.87677	999.25537	-17.158113	591.26062	1023.8994	-80.164825	647.25476	978.96594	-39.448879	-123.29375	1332.7961	-107.97378	-234.15143	1250.8369	-101.73734	-358.6409	1092.8037	-165.51489	-472.99213	1011.93	-81.373405	-538.52972	939.67358	-72.290657	-549.53998	968.4585	-141.37352	-614.13745	921.88654	-93.889351	135.50092	887.05353	-34.822521	-154.50038	910.39276	-48.401115	52.718853	928.19849	-221.35295	-34.548027	929.99445	-229.24849
1770	17.69	55.993031	1534.549	-18.944304	-89.40213	1532.1891	-41.240349	75.885422	1530.5123	-155.946	-74.721581	1522.0432	-175.22699	2.2070158	1335.4343	-199.66576	14.981457	1121.5828	-232.43665	2.4313817	1234.3872	-8.892664	1.8067112	1081.0262	32.068352	-85.549202	1259.5863	-227.68864	145.22198	1342.5822	-122.62424	307.18539	1220.4711	-78.40992	396.19244	1144.822	-134.61911	456.20325	1138.5403	-58.469753	573.20642	1021.4128	-14.949014	602.92493	1046.2405	-78.72419	661.33289	1005.124	-37.585915	-122.05507	1333.6454	-108.51058	-235.42212	1255.5343	-102.29105	-366.35806	1103.4976	-165.22195	-485.39209	1029.5537	-81.493256	-554.4115	960.66284	-72.174362	-563.31281	989.07874	-141.81036	-630.71405	946.53625	-94.580338	135.44556	887.09198	-34.414978	-154.56914	910.45538	-48.571835	53.055401	928.19098	-221.07356	-34.201931	929.96362	-229.07593
1771	17.7	55.904976	1534.4429	-18.867493	-89.432457	1532.0375	-41.249577	75.896637	1530.8146	-155.89128	-74.727104	1522.3102	-175.46742	2.4824862	1335.3931	-200.0974	15.330937	1121.71	-232.13348	2.3465164	1234.8654	-9.2716274	1.5917407	1081.5771	32.05579	-85.112083	1259.7655	-228.00809	143.86539	1343.7673	-123.06552	310.07053	1229.5524	-78.331276	402.00113	1156.9746	-133.4406	462.86221	1155.1204	-57.740746	585.5166	1044.4347	-12.909133	613.66907	1069.371	-77.280968	674.20581	1032.1017	-35.686893	-120.72884	1334.5219	-109.03967	-236.18521	1260.5424	-102.79221	-373.8667	1114.6741	-165.05708	-497.03717	1047.9628	-81.508186	-569.44598	982.71704	-71.877533	-575.82214	1010.6385	-142.48564	-646.06586	972.02289	-94.800636	135.37834	887.10144	-34.059978	-154.57318	910.49274	-48.774532	53.386963	928.18103	-220.82654	-33.844173	930.0401	-229.11476
1772	17.71	55.827854	1534.3367	-18.875242	-89.431091	1531.9567	-41.646244	75.88868	1531.1038	-155.8625	-74.744812	1522.4222	-175.34517	2.7444115	1335.2712	-200.63541	15.680755	1121.9395	-231.99763	2.2461555	1235.2983	-9.4028559	1.3733996	1082.129	32.005127	-84.693619	1259.9213	-228.29871	142.43803	1344.9408	-123.50661	312.38394	1238.9084	-78.405724	407.15372	1169.3613	-132.02075	468.71628	1172.1708	-57.155178	596.75214	1068.2698	-10.886365	623.37164	1093.2574	-75.911758	685.80975	1059.9711	-33.752708	-119.26044	1335.4591	-109.68632	-236.73637	1266.0294	-103.2648	-381.22806	1126.4126	-164.82735	-507.93869	1067.1693	-81.603737	-583.40918	1005.5931	-71.846573	-588.21875	1032.8633	-142.69786	-660.25354	998.37592	-95.158302	135.34515	887.13525	-33.66917	-154.57591	910.53851	-48.938404	53.751099	928.21106	-220.58975	-33.455746	930.0835	-229.09865
1773	17.72	55.803814	1534.2589	-18.877432	-89.469475	1531.8121	-41.689583	75.905014	1531.3704	-155.85878	-74.669495	1522.5935	-175.4847	3.1080005	1335.161	-201.32024	15.933963	1122.1377	-231.71753	2.1460855	1235.7919	-9.6051493	1.2162545	1082.6649	31.940836	-84.09549	1260.2051	-228.62256	140.90871	1346.1838	-123.96127	314.28583	1248.4028	-78.554848	412.0705	1182.4114	-131.15833	473.8161	1189.6259	-56.596535	606.8645	1092.8801	-9.0438242	631.93115	1117.8015	-74.631355	696.13226	1088.5978	-32.004578	-117.60218	1336.516	-110.57423	-237.3909	1271.9396	-103.89823	-387.93109	1138.833	-164.90596	-517.85913	1086.9935	-81.6138	-596.28882	1029.2634	-71.601158	-599.25562	1055.804	-142.88921	-673.25116	1025.5867	-95.528503	135.27525	887.21069	-33.297443	-154.58643	910.59656	-49.045574	54.059055	928.12653	-220.31409	-33.08968	930.04767	-228.9895
1774	17.73	55.744488	1534.2214	-18.861052	-89.496468	1531.6354	-41.733585	75.925354	1531.5955	-155.85616	-74.664345	1522.6732	-175.51541	3.5261548	1335.083	-202.1619	16.197723	1122.3022	-231.33966	2.0970647	1236.3112	-9.8560877	1.0699034	1083.1923	31.957962	-83.391747	1260.5627	-228.95943	139.29446	1347.3706	-124.45616	315.75998	1258.054	-78.659325	416.58713	1195.8893	-130.4014	478.02545	1207.396	-56.143749	615.67004	1117.9622	-7.4319677	639.26782	1142.9419	-73.472641	705.06982	1117.7887	-30.42223	-115.86046	1337.6528	-111.29391	-237.89157	1278.1293	-104.7531	-394.01764	1151.3146	-164.49677	-526.81464	1107.4294	-81.748909	-607.99182	1053.718	-71.35228	-609.38318	1079.4996	-143.15578	-685.00641	1053.4518	-95.729561	135.2583	887.2417	-32.941479	-154.60506	910.63947	-49.167885	54.339462	928.09509	-220.07181	-32.734261	930.01483	-228.86737
1775	17.74	55.695915	1534.1903	-18.880215	-89.499908	1531.5082	-41.841076	75.947868	1531.7899	-155.84517	-74.614258	1522.7494	-175.59709	3.9445636	1334.9443	-203.01608	16.482267	1122.537	-230.98431	1.9419442	1236.8209	-9.9998369	0.93422973	1083.7411	31.781498	-82.577454	1260.929	-229.38568	137.59645	1348.4764	-124.97535	316.85983	1267.8572	-78.820076	420.54111	1209.6504	-129.77954	481.30048	1225.3182	-55.826328	623.35999	1143.6542	-5.6819401	645.48761	1168.4598	-72.508949	712.64355	1147.5275	-29.048349	-114.09137	1338.7714	-112.10049	-237.89046	1284.3898	-105.48788	-399.53183	1164.4863	-164.72659	-534.71033	1128.2941	-81.710518	-618.51813	1078.6157	-71.131424	-618.32159	1103.8137	-143.29712	-695.29022	1081.9099	-95.690781	135.25935	887.30359	-32.632755	-154.60233	910.66339	-49.31493	54.617889	928.04138	-219.74471	-32.45631	929.98907	-228.80661
1776	17.75	55.722027	1534.1589	-18.908947	-89.494591	1531.405	-41.88451	75.96994	1531.9731	-155.85744	-74.582703	1522.8196	-175.62886	4.3971472	1334.8776	-203.80243	16.735897	1122.7717	-230.69005	1.9181359	1237.3167	-10.16325	0.72719246	1084.2401	31.757288	-81.701904	1261.2368	-229.70103	135.8806	1349.6444	-125.56808	317.49561	1277.5905	-79.03244	423.65433	1223.5729	-128.99651	483.69394	1243.2736	-55.50423	629.66791	1169.4972	-4.2563047	650.49982	1194.2052	-71.588287	718.60889	1177.6969	-27.740915	-112.35117	1340.0895	-112.89152	-237.54645	1290.6152	-106.21964	-404.60519	1177.8447	-164.42284	-541.5686	1149.4615	-81.641991	-627.73767	1103.9634	-70.955978	-625.82367	1128.54	-143.56209	-704.2876	1110.8685	-95.720161	135.23897	887.30908	-32.434166	-154.58585	910.71112	-49.402	54.87064	928.04437	-219.52812	-32.142494	930.06134	-228.80382
1777	17.76	55.730797	1534.1581	-18.946115	-89.317429	1531.1051	-42.390881	76.041306	1532.1068	-155.87109	-74.513863	1522.8704	-175.66629	4.8141265	1334.7667	-204.48946	17.031689	1123.1194	-230.44679	1.9382666	1237.8271	-10.256924	0.65226811	1084.7649	31.692348	-80.77108	1261.6219	-230.03899	134.00967	1350.7682	-126.139	317.55872	1287.2074	-79.251572	426.60678	1237.6925	-128.74022	485.1788	1261.2428	-55.245407	634.63702	1195.6477	-2.9064865	654.26581	1220.3008	-70.703697	723.14856	1208.1086	-26.531906	-110.72559	1341.1892	-113.43178	-236.75945	1296.7665	-107.00975	-409.06305	1191.6606	-164.50943	-547.26459	1170.7727	-81.542496	-635.80444	1129.5463	-70.910774	-632.5412	1153.413	-143.38292	-711.75427	1140.1613	-95.685402	135.18912	887.43732	-32.101597	-154.56415	910.75018	-49.47723	55.118328	928.06665	-219.30014	-31.876709	930.05426	-228.69894
